/* XPM */
static char * p_left_xpm[] = {
"32 32 27 1",
" 	c #40264D",
".	c #644574",
"+	c #563767",
"@	c #0C0A07",
"#	c #4C342F",
"$	c #553D39",
"%	c #634A45",
"&	c #D2A394",
"*	c #E4B5A5",
"=	c #291A18",
"-	c #B56A68",
";	c #3A2B28",
">	c #C0AC98",
",	c #6E7D61",
"'	c #DBCBBC",
")	c #4C403D",
"!	c #342523",
"~	c #657358",
"{	c #425059",
"]	c #57636B",
"^	c #554C3C",
"/	c #362623",
"(	c #482E56",
"_	c #3C2648",
":	c #543A61",
"<	c #362040",
"[	c #463051",
"                                ",
"   ..........      ..........   ",
"  .++++++++++@ @@ .++++++++++.  ",
" .+++++++++@@#@##@@+++++++++++. ",
" .++++++++@$%%#%%$#@@+++++++++. ",
" .+++++++++@%%%%%%%#$@++++++++. ",
" .++++++++@$%%%%%%%$$@++++++++. ",
" .++++++++@%##%%%%%%$@++++++++. ",
" .+++++++@#%&#%#%%%$##@+++++++. ",
" .++++++++@%&&%&%%%%#@++++++++. ",
" .++++++++@&@&*@&%#%$$@+++++++. ",
" .+++++++@#&=**=&&-%$@++++++++. ",
" .++++++++@&****&&$$$@++++++++. ",
" .+++++++++@&***&$$$@+++++++++. ",
"  .+++++++++@&&&@$$@+++++++++.  ",
"   ........@;>>>;,;@.........   ",
"           @;''>;);,@           ",
"   ........@;'''))),@........   ",
"  .++++++++@;>';)),,@++++++++.  ",
" .+++++++++@;'>))!~,@+++++++++. ",
" .+++++++++@;{{**!~,@+++++++++. ",
" .+++++++++@]]]]{{@@++++++++++. ",
" .++++++++@]]]{]]{@+++++++++++. ",
" .++++++++@]]{@{]]@+++++++++++. ",
" .++++++++@{{@.@@^^@++++++++++. ",
" .++++++++@//@.  @@@++++++++++. ",
" .+++++++@^^/@.  .++++++++++++. ",
" .++++++((___(:<<[_(((++++++++. ",
" ..++++++(((((:<<:(((+++++++++. ",
"  ..+++++++++.    .++++++++++.  ",
"   ..........      ..........   ",
"                                "};
