/* XPM */
static char *result[] = {
/* columns rows colors chars-per-pixel */
"32 32 27 1 ",
"  c black",
". c #0C0A07",
"X c #291A18",
"o c #342523",
"O c #362623",
"+ c #3A2B28",
"@ c #4C342F",
"# c #553D39",
"$ c #4C403D",
"% c #554C3C",
"& c #362040",
"* c #3C2648",
"= c #40264D",
"- c #482E56",
"; c #563767",
": c #543A61",
"> c #425059",
", c #634A45",
"< c #657358",
"1 c #644574",
"2 c #57636B",
"3 c #6E7D61",
"4 c #B56A68",
"5 c #C0AC98",
"6 c #D2A394",
"7 c #E4B5A5",
"8 c #DBCBBC",
/* pixels */
"================================",
"===1111111111======1111111111===",
"==1;;;;;;;;;;1====1;;;;;;;;;;1==",
"=1;;;;;;;;;;;;...1.;;;;;;;;;;;1=",
"=1;;;;;;;;....@@@.@.;;;;;;;;;;1=",
"=1;;;;;;;.@@@#,,,@,.;;;;;;;;;;1=",
"=1;;;;;;;;.#,,,,,,,,.;;;;;;;;;1=",
"=1;;;;;;;.#,,,,,,,,,.;;;;;;;;;1=",
"=1;;;;;;;.#,,,,@@,,, ;;;;;;;;;1=",
"=1;;;;;;.@@#,,,6@,@,# ;;;;;;;;1=",
"=1;;;;;;;.@,,,666,6, ;;;;;;;;;1=",
"=1;;;;;;;.#,,66.76.6# ;;;;;;;;1=",
"=1;;;;;;.@#,466X77X6 ;;;;;;;;;1=",
"=1;;;;;;;.###6677776 ;;;;;;;;;1=",
"==1;;;;;;;.###67776 ;;;;;;;;;1==",
"===11111111.##.666.1111111111===",
"===========.+3+555+.============",
"===1111111.3+$+885+.111111111===",
"==1;;;;;;;.3$$$888+.;;;;;;;;;1==",
"=1;;;;;;;;.33$$+88+.;;;;;;;;;;1=",
"=1;;;;;;;;.3<o$$58+.;;;;;;;;;;1=",
"=1;;;;;;;;.3<o77>>+.;;;;;;;;;;1=",
"=1;;;;;;;;;..>>2222.;;;;;;;;;;1=",
"=1;;;;;;;;;;.>22>222.;;;;;;;;;1=",
"=1;;;;;;;;;;.22>.>22.;;;;;;;;;1=",
"=1;;;;;;;;;.%%..=.>>.;;;;;;;;;1=",
"=1;;;;;;;;;...1==.OO.;;;;;;;;;1=",
"=1;;;;;;;;;;;;1==.O%%.;;;;;;;;1=",
"=11;;;;;;---**:&&:***--;;;;;;;1=",
"==11;;;;;;---:&&&&:---;;;;;;;1==",
"===1111111111======1111111111===",
"================================"
};
