/* XPM */
static char *_5b140303a63454fd3c1dcd7ce4ccf31en4R3N3dpxgccdQp[] = {
/* columns rows colors chars-per-pixel */
"32 32 23 1 ",
"  c black",
". c #0C0A07",
"X c None",
"o c #0C0A07",
"O c #4C342F",
"+ c #553D39",
"@ c #634A45",
"# c #D2A394",
"$ c #E4B5A5",
"% c #291A18",
"& c #B56A68",
"* c #3A2B28",
"= c #C0AC98",
"- c #6E7D61",
"; c #DBCBBC",
": c #4C403D",
"> c #342523",
", c #657358",
"< c #425059",
"1 c #57636B",
"2 c #554C3C",
"3 c #362623",
"4 c white",
/* pixels */
"                                ",
"                                ",
"                                ",
"                                ",
"                                ",
"               o oo             ",
"             ooOoOOoo           ",
"            o+@@O@@+Ooo         ",
"             o@@@@@@@O+o        ",
"            o+@@@@@@@++o        ",
"            o@OO@@@@@@+o        ",
"           oO@#O@O@@@+OOo       ",
"            o@##@#@@@@Oo        ",
"            o#o#$o#@O@++o       ",
"           oO#%$$%##&@+o        ",
"            o#$$$$##+++o        ",
"             o#$$$#+++o         ",
"              o###o++o          ",
"             o*===*-*o          ",
"             o*;;=*:*-o         ",
"             o*;;;:::-o         ",
"             o*=;*::--o         ",
"             o*;=::>,-o         ",
"             o*<<$$>,-o         ",
"             o1111<<oo          ",
"            o111<11<o           ",
"            o11<o<11o           ",
"            o<<o oo22o          ",
"            o33o   ooo          ",
"           o223o                ",
"          ..XXX....XX...        ",
"           ............         "
};
