/* XPM */
static char *dd47ace0d0164001a3a6ec5cab010a721Dq0dKcizReMEHAn[] = {
/* columns rows colors chars-per-pixel */
"32 32 24 1 ",
"  c black",
". c #0C0A07",
"X c None",
"o c #0C0A07",
"O c #4C342F",
"+ c #553D39",
"@ c #634A45",
"# c black",
"$ c #D2A394",
"% c #E4B5A5",
"& c #B56A68",
"* c #291A18",
"= c #3A2B28",
"- c #6E7D61",
"; c #C0AC98",
": c #4C403D",
"> c #DBCBBC",
", c #657358",
"< c #342523",
"1 c #425059",
"2 c #57636B",
"3 c #554C3C",
"4 c #362623",
"5 c white",
/* pixels */
"                                ",
"                                ",
"                                ",
"                                ",
"                                ",
"              ooo o             ",
"          ooooOOOoOo            ",
"         oOOO+@@@O@o            ",
"          o+@@@@@@@@o           ",
"         o+@@@@@@@@@o           ",
"         o+@@@@OO@@@#           ",
"        oOO+@@@$O@O@+#          ",
"         oO@@@$$$@$@#           ",
"         o+@@$$o%$o$+#          ",
"        oO+@&$$*%%*$#           ",
"         o+++$$%%%%$#           ",
"          o+++$%%%$#            ",
"           o++o$$$o             ",
"           o=-=;;;=o            ",
"          o-=:=>>;=o            ",
"          o-:::>>>=o            ",
"          o--::=>>=o            ",
"          o-,<::;>=o            ",
"          o-,<%%11=o            ",
"           oo112222o            ",
"            o1221222o           ",
"            o221o122o           ",
"           o33oo o11o           ",
"           ooo   o44o           ",
"                 o433o          ",
"         ...XX....XXX..         ",
"          ............          "
};
