/* XPM */
static char *ac5f44a8f1ba4232fbcc33667211f595pNxrD7DUpCVHwQJr[] = {
/* columns rows colors chars-per-pixel */
"32 32 18 1 ",
"  c None",
". c #0C0A07",
"X c #362623",
"o c #3A2B28",
"O c #4C342F",
"+ c #553D39",
"@ c #4C403D",
"# c #554C3C",
"$ c #425059",
"% c #634A45",
"& c #5F7050",
"* c #6E6554",
"= c #57636B",
"- c #6E7D61",
"; c #817867",
": c #8F9D84",
"> c #D2A394",
", c #E4B5A5",
/* pixels */
"                                ",
"                                ",
"                                ",
"                                ",
"                                ",
"              .  ..             ",
"             .O..OO...          ",
"            .O%OO%%OOO.         ",
"           .%%%%%%%%%.          ",
"          .O%%%%%%%OO%.         ",
"         .OO%%%%%%O%%%.         ",
"          .%%%%%%%%%%%O.        ",
"          .+%%O%O%%%%O.         ",
"         .++%%%O%%%%%+.         ",
"          .++%%%%%%%%++.        ",
"          .+++%%%%%%++.         ",
"           .++%%%%+++.          ",
"            .+++++++.           ",
"            .-o---o-.           ",
"            .o-----o.           ",
"           .oo-----oo.          ",
"           .@o-:::-o-.          ",
"          .@@--&&&--.@.         ",
"          .,,o-:::-o.>.         ",
"           ..$$$$$$$..          ",
"            .$=====$.           ",
"            .$=$.$;;.           ",
"            .$$. .**.           ",
"            .XX.  ..            ",
"            .##.                ",
"             ..   ..            ",
"                                "
};
